<?xml version="1.0" encoding="UTF-8" standalone="no"?>
<!-- Created with Inkscape (http://www.inkscape.org/) -->

<svg
   xmlns:dc="http://purl.org/dc/elements/1.1/"
   xmlns:cc="http://creativecommons.org/ns#"
   xmlns:rdf="http://www.w3.org/1999/02/22-rdf-syntax-ns#"
   xmlns:svg="http://www.w3.org/2000/svg"
   xmlns="http://www.w3.org/2000/svg"
   xmlns:sodipodi="http://sodipodi.sourceforge.net/DTD/sodipodi-0.dtd"
   xmlns:inkscape="http://www.inkscape.org/namespaces/inkscape"
   width="64px"
   height="64px"
   id="svg2985"
   version="1.1"
   inkscape:version="0.48.2 r9819"
   sodipodi:docname="radioactive.svg"
   inkscape:export-filename="/home/pkienzle/src/psdplan/cgi/radioactive_16x16.png"
   inkscape:export-xdpi="22.5"
   inkscape:export-ydpi="22.5">
  <defs
     id="defs2987" />
  <sodipodi:namedview
     id="base"
     pagecolor="#ffffff"
     bordercolor="#666666"
     borderopacity="1.0"
     inkscape:pageopacity="0.0"
     inkscape:pageshadow="2"
     inkscape:zoom="5.6568542"
     inkscape:cx="5.4834957"
     inkscape:cy="32"
     inkscape:current-layer="layer1"
     showgrid="true"
     inkscape:document-units="px"
     inkscape:grid-bbox="true"
     inkscape:window-width="1114"
     inkscape:window-height="746"
     inkscape:window-x="457"
     inkscape:window-y="353"
     inkscape:window-maximized="0" />
  <metadata
     id="metadata2990">
    <rdf:RDF>
      <cc:Work
         rdf:about="">
        <dc:format>image/svg+xml</dc:format>
        <dc:type
           rdf:resource="http://purl.org/dc/dcmitype/StillImage" />
        <dc:title></dc:title>
      </cc:Work>
    </rdf:RDF>
  </metadata>
  <g
     id="layer1"
     inkscape:label="Layer 1"
     inkscape:groupmode="layer">
    <text
       xml:space="preserve"
       style="font-size:87.67488098px;font-style:normal;font-weight:normal;line-height:125%;letter-spacing:0px;word-spacing:0px;fill:#000000;fill-opacity:1;stroke:none;font-family:Sans"
       x="-7.1393676"
       y="64.176773"
       id="text2993"
       sodipodi:linespacing="125%"><tspan
         sodipodi:role="line"
         id="tspan2995"
         x="-7.1393676"
         y="64.176773">☢</tspan></text>
    <path
       style="fill:#ffff00"
       d="M 29.339855,60.928976 C 24.716448,60.395653 20.743104,58.928969 16.78823,56.295786 14.375951,54.689672 10.131694,50.514716 8.3709777,48.015969 6.9147433,45.949331 5.2611253,42.652832 4.5546817,40.408157 3.6070134,37.397005 3.3922285,35.887784 3.3857472,32.194454 3.3792212,28.475665 3.6603661,26.699231 4.739304,23.641909 6.283869,19.265169 8.5694449,15.861721 12.597088,11.940893 18.623269,6.0745305 24.955953,3.4375736 32.371231,3.7068542 c 7.371106,0.2676765 13.839874,3.2404644 19.778212,9.0892778 4.81982,4.747157 7.482989,9.91427 8.245639,15.998288 0.305573,2.437689 0.131647,7.355491 -0.330245,9.33784 -0.898403,3.855758 -2.329502,6.961125 -4.614802,10.01374 -5.270019,7.039483 -11.531531,11.275608 -18.48261,12.504111 -1.90348,0.336413 -5.871168,0.481472 -7.62757,0.278865 l 0,0 z m 5.783688,-1.609032 c 2.188705,-0.224604 3.526077,-0.522557 5.591214,-1.245662 1.538732,-0.538786 4.519804,-1.999175 4.820513,-2.361509 0.09741,-0.117367 -1.52493,-3.088135 -4.343587,-7.953831 -2.474487,-4.271572 -4.531591,-7.79902 -4.571347,-7.838773 -0.03975,-0.03976 -0.499977,0.130051 -1.022716,0.377345 -2.173693,1.028321 -4.687181,1.011506 -6.960295,-0.04656 l -1.082257,-0.503761 -4.37005,7.669439 c -2.403527,4.218193 -4.409553,7.820499 -4.457834,8.005124 -0.07326,0.280154 0.273061,0.511948 2.09355,1.401207 2.557108,1.249077 4.34067,1.834263 6.777526,2.2237 2.953064,0.471932 4.900379,0.54265 7.525283,0.273285 l 0,0 z m -0.02706,-20.922828 c 1.342124,-0.691298 2.747007,-2.156685 3.394814,-3.541016 1.257187,-2.686548 0.353372,-6.026267 -2.182333,-8.064016 -1.301037,-1.04554 -2.532351,-1.481129 -4.202901,-1.48681 -2.011858,-0.0068 -3.251929,0.546083 -4.769771,2.126758 -1.514471,1.577163 -2.006287,2.722181 -2.00367,4.664836 0.0026,1.93366 0.43886,3.110443 1.66175,4.482493 1.631615,1.830633 3.060938,2.449963 5.465244,2.368108 1.423645,-0.04847 1.825184,-0.132275 2.636867,-0.550353 l 0,0 z M 23.267231,31.607821 c 0,-2.101306 1.516138,-4.769902 3.641605,-6.409688 0.533474,-0.411571 0.946608,-0.838356 0.918076,-0.94841 C 27.785804,24.091159 19.101114,8.8505441 18.922271,8.6231209 18.815822,8.4877569 16.56293,10.15518 14.824705,11.655835 8.662791,16.975575 5.3102452,23.291193 4.9354071,30.28557 l -0.1070365,1.997273 9.2194304,0 9.21943,0 0,-0.675022 z m 36.15142,-0.871774 c -0.33362,-4.316836 -1.71771,-8.569371 -3.898879,-11.979088 -1.08662,-1.698662 -3.331635,-4.359956 -5.15148,-6.106687 -1.736702,-1.666928 -4.75931,-4.0055427 -4.941543,-3.8233094 -0.05176,0.051761 -2.111727,3.5805334 -4.577702,7.8417144 l -4.483591,7.747603 0.477762,0.349537 c 2.092563,1.53095 3.720494,4.019644 4.099602,6.267255 l 0.210801,1.249771 9.192286,0 9.192285,0 -0.119541,-1.546796 z"
       id="path2997"
       inkscape:connector-curvature="0" />
  </g>
</svg>
